# xmcd CD database file
#
# Track frame offsets:
#	150
#	19111
#	50989
#	77219
#	106178
#	129718
#	170183
#	194585
#
# Disc length: 2923 seconds
#
# Revision: 0
# Processed by: cddbd v1.5.2PL0 Copyright (c) Steve Scherf et al.
# Submitted via: CDex 1.51
#
DISCID=740b6908
DTITLE=Bruce Becvar and Lani Star - Mystic Love
DYEAR=2010
DGENRE=New Age
TTITLE0=Mystic Love
TTITLE1=Horizens
TTITLE2=Garden Of Light
TTITLE3=Touch The Sky
TTITLE4=Perfect Rain
TTITLE5=Deep Divine
TTITLE6=Satva
TTITLE7=Angels Can Dance
EXTD=YEAR: 2010
EXTT0=
EXTT1=
EXTT2=
EXTT3=
EXTT4=
EXTT5=
EXTT6=
EXTT7=
PLAYORDER=
